<?xml version="1.0" encoding="utf-8"?>
<!-- Generator: Adobe Illustrator 22.1.0, SVG Export Plug-In . SVG Version: 6.00 Build 0)  -->
<svg version="1.1" id="Capa_1" xmlns="http://www.w3.org/2000/svg" xmlns:xlink="http://www.w3.org/1999/xlink" x="0px" y="0px"
	 viewBox="0 0 56.7 56.7" style="enable-background:new 0 0 56.7 56.7;" xml:space="preserve">
<style type="text/css">
	.st0{fill:#000000;}
</style>
<g>
	<path class="st0" d="M28.3,51.2c-12.6,0-22.8-10.2-22.8-22.8S15.8,5.5,28.3,5.5c12.6,0,22.8,10.2,22.8,22.8S40.9,51.2,28.3,51.2z
		 M28.3,7C16.6,7,7,16.6,7,28.3s9.6,21.4,21.4,21.4c11.8,0,21.4-9.6,21.4-21.4S40.1,7,28.3,7z"/>
	<path class="st0" d="M34.3,13.9c-0.7,0-6.8,0.2-7.6,7.7v3.2h3.8c0.7,0,1.3,0.6,1.3,1.3s-0.6,1.3-1.3,1.3h-3.8v14.8
		c0,1.3-1.1,2.4-2.4,2.4c-0.7,0-1.3-0.6-1.3-1.3c0-0.7,0.5-1.2,1.2-1.3V27.4h-1.9c-0.7,0-1.3-0.6-1.3-1.3s0.6-1.3,1.3-1.3h1.9v-3.3
		v-0.1c1-9.9,9.7-10.1,10.1-10.1c0.7,0,1.3,0.6,1.3,1.3C35.6,13.4,35,13.9,34.3,13.9z"/>
</g>
</svg>
