<?xml version="1.0" encoding="utf-8"?>
<!-- Generator: Adobe Illustrator 25.3.1, SVG Export Plug-In . SVG Version: 6.00 Build 0)  -->
<svg version="1.1" id="Layer_1" xmlns="http://www.w3.org/2000/svg" xmlns:xlink="http://www.w3.org/1999/xlink" x="0px" y="0px"
	 viewBox="0 0 178.58 178.58" style="enable-background:new 0 0 178.58 178.58;" xml:space="preserve">
<style type="text/css">
	.st0{fill:#DEDBD6;}
	.st1{fill:#393F3E;}
	.st2{fill:none;}
	.st3{fill:#FFF200;}
</style>
<g>
	<circle class="st0" cx="89.29" cy="89.29" r="85.04"/>
	<path class="st1" d="M122.33,28.36c-0.9-1.02-7.46-7.82-19.78-8.03c0,0-4.81-0.44-9.53,0.63c0.02-0.02,0.05-0.04,0.05-0.04
		c-8.59,1.72-15.19,6.16-19.13,9.52c-4.96,4.22-7.65,8.82-9.18,13.28c-2.44,7.11-3,15.4-3.1,20.04C61.6,66,61.66,74.99,61.66,74.99
		v76.29h22.73V81h11.39v-2.26H84.39v-13.2l0.21-23.34c0-6.14,1.72-11.04,3.6-14.6c1.6-2,3.78-4.24,5.84-4.71
		c0.09-0.02,0.17-0.04,0.24-0.06c5.22-0.9,14.19-1.5,21.49,2.87c-0.5-0.06-1.02-0.09-1.54-0.09c-7.26,0-13.13,5.81-13.13,13
		s5.88,13,13.13,13c7.26,0,13.13-5.81,13.13-13C127.37,34.42,125.39,30.74,122.33,28.36z"/>
	<g>
		<path class="st2" d="M75.56,86.91c1.6,1.4,3.46,2.66,5.6,3.01c0.49,0.08,0.99,0.1,1.5,0.09c-0.36-1.09-0.77-2.17-1.31-3.17
			c-1.1-2.07-2.88-4.81-5.39-5.2c-1.46-0.23-3.24,0.07-4.77,0.79C72.57,84,73.98,85.54,75.56,86.91z"/>
		<path class="st2" d="M80.7,93.18c-4.56-0.66-8.1-4.23-11.04-7.5c-0.36-0.4-0.7-0.8-1.06-1.21c-0.12,0.16-0.24,0.31-0.34,0.48
			c-1.33,2.46-1.04,5.64-0.69,8.3c0.87,6.73,2.89,13.36,5.85,19.47c1.24,2.54,2.65,5.01,4.2,7.37c0.2-0.31,0.39-0.64,0.57-0.95
			c1.4-2.45,2.59-5.08,3.54-7.74c1.93-5.35,2.67-11.3,1.91-16.95c-0.05-0.4-0.14-0.8-0.2-1.19C82.55,93.33,81.64,93.31,80.7,93.18z"
			/>
		<path class="st3" d="M61.66,76.86c1.76,1.42,3.29,3.17,4.77,4.96c-4.02,4.45-2.24,12.44-1.1,17.63
			c1.87,8.45,5.41,16.41,10.28,23.48c-0.75,0.87-1.59,1.64-2.56,2.24c-0.88,0.54-2.05,1.1-3.12,1.02c-0.79-0.05-1.57-0.66-2.19-1.13
			c-1.79-1.4-3.38-3.45-5.61-4.19c-0.17-0.05-0.32-0.07-0.48-0.1v3.49c0.52,0.31,1.06,0.81,1.45,1.14c1.78,1.54,3.62,3.58,6.04,4.01
			c2.74,0.49,5.58-1.12,7.55-2.89c0.3-0.27,0.6-0.57,0.88-0.86c2.07,2.71,4.35,5.28,6.8,7.67v-4.65c-1.68-1.79-3.25-3.67-4.69-5.63
			c0.9-1.32,1.69-2.72,2.4-4.13c0.86-1.72,1.62-3.47,2.3-5.24V85.56c-0.26-0.51-0.52-1.03-0.84-1.51c-1.54-2.44-3.75-5.03-6.71-5.59
			c-2.54-0.49-5.48,0.13-7.83,1.41c-1.15-1.35-2.3-2.68-3.54-3.95c-1.1-1.11-2.39-2.26-3.8-3.08c0.01,1.27,0.01,2.14,0.01,2.14
			V76.86z M83.66,94.46c0.76,5.64,0.02,11.59-1.91,16.95c-0.96,2.66-2.14,5.28-3.54,7.74c-0.18,0.31-0.37,0.64-0.57,0.95
			c-1.55-2.37-2.96-4.83-4.2-7.37c-2.97-6.11-4.99-12.73-5.85-19.47c-0.35-2.66-0.63-5.84,0.69-8.3c0.09-0.17,0.22-0.32,0.34-0.48
			c0.35,0.41,0.7,0.82,1.06,1.21c2.94,3.27,6.48,6.83,11.04,7.5c0.93,0.14,1.84,0.16,2.75,0.09C83.53,93.67,83.6,94.07,83.66,94.46z
			 M75.96,81.65c2.51,0.4,4.28,3.13,5.39,5.2c0.53,1.01,0.95,2.08,1.31,3.17c-0.5,0.01-0.99-0.02-1.5-0.09
			c-2.14-0.35-4-1.6-5.6-3.01c-1.58-1.38-3-2.91-4.37-4.48C72.72,81.72,74.5,81.42,75.96,81.65z"/>
		<path class="st3" d="M81.96,40.85c-4.88,4.56-12,5.8-16.32,11.15c-1.64,2.04-3.07,4.92-2.43,7.61c0.43,1.81,1.91,3.05,3.54,3.79
			c4.08,1.85,8.79,1.61,12.91,3.34c1.73,0.72,3.31,1.97,4.72,3.24v-4.23c-1.8-1.27-3.76-2.28-5.88-2.84
			c-2.38-0.63-4.82-0.95-7.21-1.51c-1.48-0.35-3.77-0.83-4.62-2.01c-1.32-1.83,1.21-5.15,2.65-6.54c2.46-2.38,5.58-3.8,8.57-5.38
			c2.4-1.28,4.74-2.7,6.68-4.6l0.01-0.69c0-2.23,0.23-4.29,0.61-6.19C84.46,37.88,83.31,39.6,81.96,40.85z"/>
		<path class="st3" d="M83.78,26.33c1.91,1.81,2.47,4.22,2.19,6.65c0.63-2.04,1.4-3.85,2.22-5.39c0.06-0.08,0.14-0.17,0.2-0.25
			c-0.45-1.06-1.06-2.04-1.83-2.91c-0.38-0.41-0.77-0.77-1.21-1.12c-1.19,0.51-2.34,1.07-3.41,1.64
			C82.6,25.35,83.23,25.79,83.78,26.33z"/>
		<path class="st3" d="M84.39,141.04v-4.19c-5.01,4.65-11.75,5.89-18.25,3.98c-1.57-0.46-3.06-1.09-4.47-1.83v3.65
			c3.26,1.49,6.78,2.38,10.45,2.39C76.68,145.06,80.85,143.57,84.39,141.04z"/>
	</g>
	<g>
		<polygon class="st2" points="120.52,41.05 120.51,41.05 120.51,41.05 		"/>
		<path class="st2" d="M120.51,41.07c0.17,0.03,0.1,0,0.03-0.02C120.53,41.06,120.52,41.07,120.51,41.07z"/>
		<path class="st2" d="M120.48,41.07c-0.02,0-0.02,0-0.04-0.01C120.43,41.08,120.43,41.1,120.48,41.07z"/>
		<path class="st2" d="M120.49,41.07c0.01,0,0.01,0,0.01,0c0-0.01,0-0.01,0.01-0.02C120.5,41.06,120.49,41.07,120.49,41.07
			C120.48,41.07,120.48,41.07,120.49,41.07z"/>
		<path class="st3" d="M125,31.16c-1.07-1.52-2.45-2.79-4.06-3.73c1.23,4.41,1.46,9.28-0.36,13.47c-0.03,0.07-0.05,0.12-0.07,0.15
			c-0.1-0.03-0.06-0.01,0,0.01l0,0c0,0,0,0,0.01,0c0,0-0.01,0-0.01,0.01c-0.01,0.01-0.01,0.01-0.01,0.02c-0.01,0-0.01,0-0.01,0
			s0,0-0.01,0c-0.05,0.02-0.05,0.01-0.04-0.01c-0.43-0.08-0.15,0.05-0.56-0.06c-0.32-0.08-0.8-0.24-1.01-0.32
			c-1.82-0.74-3.5-1.87-5.18-2.87c-2.65-1.56-6.91-4.42-10-2.38c-1.34,0.89-2.08,2.49-2.54,4.04c0.17,2.35,0.94,4.52,2.2,6.37
			c0.16-1.48,0.37-2.94,0.7-4.39c0.21-0.91,0.46-1.83,0.96-2.64c0.19-0.3,0.29-0.42,0.57-0.68c-0.07,0.07,0.31-0.05,0.18-0.05
			c0.71,0,1.18,0.08,2.03,0.39c0.87,0.31,1.69,0.76,2.5,1.2c1.87,1.03,3.67,2.21,5.56,3.2c1.48,0.77,3.18,1.63,4.9,1.48
			c2.44-0.23,3.14-2.59,3.69-4.64C125.17,36.94,125.33,34.02,125,31.16z M120.51,41.07c0.01-0.01,0.02-0.01,0.03-0.02
			C120.62,41.08,120.68,41.11,120.51,41.07z"/>
		<path class="st3" d="M120.51,41.05L120.51,41.05c-0.03-0.01-0.06,0-0.07,0.01c0.01,0,0.02,0,0.04,0.01
			C120.49,41.07,120.5,41.06,120.51,41.05z"/>
	</g>
</g>
</svg>
