<?xml version="1.0" encoding="utf-8"?>
<!-- Generator: Adobe Illustrator 22.1.0, SVG Export Plug-In . SVG Version: 6.00 Build 0)  -->
<svg version="1.1" id="Layer_1" xmlns="http://www.w3.org/2000/svg" xmlns:xlink="http://www.w3.org/1999/xlink" x="0px" y="0px"
	 viewBox="0 0 85 85" style="enable-background:new 0 0 85 85;" xml:space="preserve">
<path d="M54.7,13.9c-1.4,0-13.8,0.4-15.4,15.8l0,6.5H47c1.4,0,2.6,1.1,2.6,2.6c0,1.4-1.1,2.6-2.6,2.6h-7.7l0,30.1
	c0,2.7-2.2,4.8-4.9,4.8c-1.4,0-2.6-1.1-2.6-2.6c0-1.3,1-2.4,2.3-2.5l0-29.8h-3.8c-1.4,0-2.6-1.1-2.6-2.6c0-1.4,1.1-2.6,2.6-2.6h3.8
	l0-6.7c0-0.1,0-0.2,0-0.2c2-20.2,19.8-20.5,20.5-20.5c1.4,0,2.6,1.2,2.5,2.6C57.2,12.8,56.1,13.9,54.7,13.9z"/>
</svg>
