<?xml version="1.0" encoding="utf-8"?>
<!-- Generator: Adobe Illustrator 21.0.2, SVG Export Plug-In . SVG Version: 6.00 Build 0)  -->
<svg version="1.1" id="Capa_1" xmlns="http://www.w3.org/2000/svg" xmlns:xlink="http://www.w3.org/1999/xlink" x="0px" y="0px"
	 viewBox="368 262 100 70" style="enable-background:new 0 0 841.9 595.3;" xml:space="preserve">
<style type="text/css">
	.st0{fill:none;stroke:#1D1D1B;stroke-width:1.4173;stroke-miterlimit:10;}
	.st1{fill:#1D1D1B;stroke:#1D1D1B;stroke-width:0.3003;stroke-miterlimit:10;}
	.st2{fill:#63C1CE;stroke:#63C1CE;stroke-width:0.3003;stroke-miterlimit:10;}
</style>
<circle class="st0" cx="419.7" cy="288.2" r="22.1"/>
<path d="M425.7,273.8c-0.7,0-6.8,0.2-7.6,7.7l0,3.2h3.8c0.7,0,1.3,0.6,1.3,1.3s-0.6,1.3-1.3,1.3h-3.8l0,14.8c0,1.3-1.1,2.4-2.4,2.4
	c-0.7,0-1.3-0.6-1.3-1.3c0-0.7,0.5-1.2,1.2-1.3l0-14.6h-1.9c-0.7,0-1.3-0.6-1.3-1.3s0.6-1.3,1.3-1.3h1.9l0-3.3c0,0,0-0.1,0-0.1
	c1-9.9,9.7-10.1,10.1-10.1c0.7,0,1.3,0.6,1.3,1.3C427,273.3,426.4,273.8,425.7,273.8z"/>
<g>
	<g>
		<path class="st1" d="M371.1,322.7v2.2h1.6v0.3h-1.6v3h-0.3v-5.7h0.3h1.9v0.3H371.1z"/>
		<path class="st1" d="M378.1,327.9v0.3h-1.8H376v-5.7h0.3v5.4H378.1z"/>
		<path class="st1" d="M383.5,328.2l-0.4-1.8h-1.6l-0.4,1.8h-0.3l1.3-5.7h0.5l1.3,5.7H383.5z M381.5,326.1h1.5l-0.8-3.4L381.5,326.1
			z"/>
		<path class="st1" d="M388.9,322.4l-1.2,5.7h-0.4l-1.2-5.7h0.3l1.1,5.3l1.1-5.3H388.9z"/>
		<path class="st1" d="M391.9,328.2v-5.7h0.3v5.7H391.9z"/>
		<path class="st1" d="M397.9,328.2l-0.4-1.8h-1.6l-0.4,1.8h-0.3l1.3-5.7h0.5l1.3,5.7H397.9z M395.9,326.1h1.5l-0.8-3.4L395.9,326.1
			z"/>
		<path class="st1" d="M407.1,324.9h0.3v0.3v0.9v0.9v0.1c0,0.2-0.1,0.3-0.1,0.4c-0.1,0.1-0.2,0.3-0.3,0.4c-0.1,0.1-0.2,0.2-0.4,0.2
			s-0.3,0.1-0.5,0.1c-0.2,0-0.3,0-0.5-0.1c-0.1-0.1-0.3-0.2-0.4-0.3c-0.1-0.1-0.2-0.2-0.3-0.4c-0.1-0.1-0.1-0.3-0.1-0.5v-3.3
			c0-0.2,0-0.3,0.1-0.5c0.1-0.1,0.2-0.3,0.3-0.4c0.1-0.1,0.2-0.2,0.4-0.3c0.1-0.1,0.3-0.1,0.5-0.1c0.2,0,0.3,0,0.5,0.1
			c0.1,0.1,0.3,0.1,0.4,0.3s0.2,0.2,0.3,0.4c0.1,0.1,0.1,0.3,0.1,0.5h-0.3c0-0.1,0-0.3-0.1-0.4c-0.1-0.1-0.1-0.2-0.2-0.3
			c-0.1-0.1-0.2-0.2-0.3-0.2c-0.1-0.1-0.2-0.1-0.4-0.1s-0.3,0-0.4,0.1s-0.2,0.1-0.3,0.2c-0.1,0.1-0.2,0.2-0.2,0.3s-0.1,0.2-0.1,0.4
			v3.4c0,0.1,0,0.3,0.1,0.4c0.1,0.1,0.1,0.2,0.2,0.3c0.1,0.1,0.2,0.2,0.3,0.2s0.2,0.1,0.4,0.1s0.3,0,0.4-0.1
			c0.1-0.1,0.2-0.1,0.3-0.2c0.1-0.1,0.2-0.2,0.2-0.3c0.1-0.1,0.1-0.2,0.1-0.4v-0.9v-0.9h-1.2v-0.3H407.1z"/>
		<path class="st1" d="M410.5,328.2v-5.7h0.3v5.7H410.5z"/>
		<path class="st1" d="M416.4,322.4v2.4v0.1v1.9c0,0.2,0,0.3-0.1,0.5c-0.1,0.1-0.2,0.3-0.3,0.4s-0.2,0.2-0.4,0.3
			c-0.1,0.1-0.3,0.1-0.5,0.1c-0.2,0-0.3,0-0.5-0.1c-0.1-0.1-0.3-0.2-0.4-0.3c-0.1-0.1-0.2-0.2-0.3-0.4c-0.1-0.2-0.1-0.3-0.1-0.5V325
			v-0.1v-2.4h0.3v2.4v0.1v1.9c0,0.1,0,0.3,0.1,0.4s0.1,0.2,0.2,0.3c0.1,0.1,0.2,0.2,0.3,0.2s0.2,0.1,0.4,0.1s0.3,0,0.4-0.1
			c0.1-0.1,0.2-0.1,0.3-0.2c0.1-0.1,0.2-0.2,0.2-0.3c0.1-0.1,0.1-0.2,0.1-0.4V325v-0.1v-2.4H416.4z"/>
		<path class="st1" d="M420.8,325.1c0.1,0.1,0.3,0.2,0.4,0.4c0.1,0.1,0.3,0.3,0.4,0.4c0.1,0.1,0.2,0.3,0.3,0.5
			c0.1,0.2,0.1,0.4,0.1,0.6c0,0.2,0,0.3-0.1,0.5c-0.1,0.2-0.2,0.3-0.3,0.4s-0.2,0.2-0.4,0.3c-0.1,0.1-0.3,0.1-0.5,0.1
			c-0.2,0-0.3,0-0.5-0.1c-0.1-0.1-0.3-0.2-0.4-0.3c-0.1-0.1-0.2-0.2-0.3-0.4c-0.1-0.1-0.1-0.3-0.1-0.5h0.3c0,0.1,0,0.3,0.1,0.4
			c0.1,0.1,0.1,0.2,0.2,0.3c0.1,0.1,0.2,0.2,0.3,0.2s0.2,0.1,0.4,0.1s0.3,0,0.4-0.1c0.1-0.1,0.2-0.1,0.3-0.2
			c0.1-0.1,0.2-0.2,0.2-0.3c0.1-0.1,0.1-0.2,0.1-0.4c0-0.2,0-0.4-0.1-0.5c-0.1-0.2-0.1-0.3-0.2-0.4c-0.1-0.1-0.2-0.2-0.3-0.4
			c-0.1-0.1-0.3-0.2-0.4-0.3c-0.1-0.1-0.3-0.2-0.4-0.3s-0.3-0.2-0.4-0.4s-0.2-0.3-0.3-0.4c-0.1-0.2-0.1-0.4-0.1-0.6
			c0-0.2,0-0.3,0.1-0.5c0.1-0.1,0.2-0.3,0.3-0.4c0.1-0.1,0.2-0.2,0.4-0.3c0.1-0.1,0.3-0.1,0.5-0.1c0.2,0,0.3,0,0.5,0.1
			c0.1,0.1,0.3,0.1,0.4,0.3s0.2,0.2,0.3,0.4c0.1,0.1,0.1,0.3,0.1,0.5h-0.3c0-0.1,0-0.3-0.1-0.4c-0.1-0.1-0.1-0.2-0.2-0.3
			c-0.1-0.1-0.2-0.2-0.3-0.2c-0.1-0.1-0.2-0.1-0.4-0.1s-0.3,0-0.4,0.1s-0.2,0.1-0.3,0.2c-0.1,0.1-0.2,0.2-0.2,0.3s-0.1,0.2-0.1,0.4
			c0,0.2,0,0.3,0.1,0.5c0.1,0.1,0.1,0.3,0.2,0.4s0.2,0.2,0.3,0.3C420.5,324.9,420.7,325,420.8,325.1z"/>
		<path class="st1" d="M427.2,322.7h-1.1v5.4h-0.3v-5.4h-1.1v-0.3h1.1h0.3h1.1V322.7z"/>
		<path class="st1" d="M430.1,328.2v-5.7h0.3v5.7H430.1z"/>
		<path class="st1" d="M436,322.4v5.7h-0.3l-1.8-4.9v4.9h-0.3v-5.7h0.3l1.8,4.9v-4.9H436z"/>
		<path class="st1" d="M440.4,328.2c-0.2,0-0.3,0-0.5-0.1c-0.2-0.1-0.3-0.2-0.4-0.3c-0.1-0.1-0.2-0.2-0.3-0.4
			c-0.1-0.1-0.1-0.3-0.1-0.5v-3.3c0-0.2,0-0.3,0.1-0.5c0.1-0.1,0.2-0.3,0.3-0.4c0.1-0.1,0.2-0.2,0.4-0.3c0.1-0.1,0.3-0.1,0.5-0.1
			s0.3,0,0.5,0.1c0.1,0.1,0.3,0.2,0.4,0.3s0.2,0.2,0.3,0.4c0.1,0.2,0.1,0.3,0.1,0.5v3.3c0,0.2,0,0.3-0.1,0.5
			c-0.1,0.2-0.2,0.3-0.3,0.4c-0.1,0.1-0.2,0.2-0.4,0.3C440.7,328.2,440.5,328.2,440.4,328.2z M440.4,322.7c-0.1,0-0.3,0-0.4,0.1
			c-0.1,0.1-0.2,0.1-0.3,0.2c-0.1,0.1-0.2,0.2-0.2,0.3s-0.1,0.2-0.1,0.4v3.4c0,0.1,0,0.3,0.1,0.4c0.1,0.1,0.1,0.2,0.2,0.3
			c0.1,0.1,0.2,0.2,0.3,0.2c0.1,0.1,0.2,0.1,0.4,0.1s0.3,0,0.4-0.1s0.2-0.1,0.3-0.2s0.2-0.2,0.2-0.3c0.1-0.1,0.1-0.2,0.1-0.4v-3.4
			c0-0.1,0-0.3-0.1-0.4s-0.1-0.2-0.2-0.3s-0.2-0.2-0.3-0.2S440.5,322.7,440.4,322.7z"/>
		<path class="st2" d="M448.6,328.2l1.7-5.7h0.3l-1.7,5.7H448.6z"/>
		<path class="st2" d="M458.7,322.4c0.2,0,0.3,0,0.5,0.1c0.1,0.1,0.3,0.1,0.4,0.3s0.2,0.2,0.3,0.4c0.1,0.1,0.1,0.3,0.1,0.5v3.3
			c0,0.2,0,0.3-0.1,0.5c-0.1,0.1-0.2,0.3-0.3,0.4s-0.2,0.2-0.4,0.3c-0.1,0.1-0.3,0.1-0.5,0.1h-0.9h-0.1h-0.2v-5.7h0.2h0.1H458.7z
			 M459.6,323.7c0-0.1,0-0.3-0.1-0.4s-0.1-0.2-0.2-0.3c-0.1-0.1-0.2-0.2-0.3-0.2c-0.1,0-0.2-0.1-0.4-0.1h-0.9v5.2h0.9
			c0.1,0,0.3,0,0.4-0.1c0.1,0,0.2-0.1,0.3-0.2c0.1-0.1,0.2-0.2,0.2-0.3c0.1-0.1,0.1-0.2,0.1-0.4V323.7z"/>
		<path class="st2" d="M465.2,324.9h0.3v0.3v0.9v0.9v0.1c0,0.2-0.1,0.3-0.1,0.4c-0.1,0.1-0.2,0.3-0.3,0.4s-0.2,0.2-0.4,0.2
			c-0.1,0.1-0.3,0.1-0.5,0.1c-0.2,0-0.3,0-0.5-0.1c-0.1-0.1-0.3-0.2-0.4-0.3c-0.1-0.1-0.2-0.2-0.3-0.4c-0.1-0.1-0.1-0.3-0.1-0.5
			v-3.3c0-0.2,0-0.3,0.1-0.5c0.1-0.1,0.2-0.3,0.3-0.4s0.2-0.2,0.4-0.3c0.1-0.1,0.3-0.1,0.5-0.1c0.2,0,0.3,0,0.5,0.1
			c0.1,0.1,0.3,0.1,0.4,0.3s0.2,0.2,0.3,0.4c0.1,0.1,0.1,0.3,0.1,0.5h-0.3c0-0.1,0-0.3-0.1-0.4c-0.1-0.1-0.1-0.2-0.2-0.3
			c-0.1-0.1-0.2-0.2-0.3-0.2c-0.1-0.1-0.2-0.1-0.4-0.1s-0.3,0-0.4,0.1c-0.1,0.1-0.2,0.1-0.3,0.2s-0.2,0.2-0.2,0.3s-0.1,0.2-0.1,0.4
			v3.4c0,0.1,0,0.3,0.1,0.4c0.1,0.1,0.1,0.2,0.2,0.3s0.2,0.2,0.3,0.2c0.1,0.1,0.2,0.1,0.4,0.1s0.3,0,0.4-0.1
			c0.1-0.1,0.2-0.1,0.3-0.2c0.1-0.1,0.2-0.2,0.2-0.3c0.1-0.1,0.1-0.2,0.1-0.4v-0.9v-0.9h-1.2v-0.3H465.2z"/>
	</g>
</g>
</svg>
